<?xml version="1.0" encoding="iso-8859-1"?>
<!-- Generator: Adobe Illustrator 16.0.0, SVG Export Plug-In . SVG Version: 6.00 Build 0)  -->
<!DOCTYPE svg PUBLIC "-//W3C//DTD SVG 1.1//EN" "http://www.w3.org/Graphics/SVG/1.1/DTD/svg11.dtd">
<svg xmlns="http://www.w3.org/2000/svg" xmlns:xlink="http://www.w3.org/1999/xlink" version="1.1" id="Capa_1" x="0px" y="0px" width="24px" height="24px" viewBox="0 0 29.054 29.055" style="enable-background:new 0 0 29.054 29.055;" xml:space="preserve">
<g>
	<path d="M26.536,0.501v4.094c0,0.147-0.063,0.287-0.178,0.383l-8.722,7.354v16.223c0,0.197-0.116,0.377-0.299,0.457   c-0.063,0.029-0.134,0.043-0.201,0.043c-0.123,0-0.243-0.045-0.338-0.133l-5.217-4.785c-0.104-0.094-0.162-0.229-0.162-0.367   V12.331L2.698,4.977C2.586,4.881,2.519,4.743,2.519,4.594V0.5c0-0.275,0.225-0.5,0.5-0.5h23.015   C26.311,0.001,26.536,0.224,26.536,0.501z" fill="#fff"/>
</g>
<g>
</g>
<g>
</g>
<g>
</g>
<g>
</g>
<g>
</g>
<g>
</g>
<g>
</g>
<g>
</g>
<g>
</g>
<g>
</g>
<g>
</g>
<g>
</g>
<g>
</g>
<g>
</g>
<g>
</g>
</svg>
